<?xml version="1.0" standalone="no"?><!DOCTYPE svg PUBLIC "-//W3C//DTD SVG 1.1//EN" "http://www.w3.org/Graphics/SVG/1.1/DTD/svg11.dtd"><svg t="1784395700477" class="icon" viewBox="0 0 1024 1024" version="1.1" xmlns="http://www.w3.org/2000/svg" p-id="3097" xmlns:xlink="http://www.w3.org/1999/xlink" width="200" height="200"><path d="M881.909841 412.636968h6.135744v-51.801806h7.114025c25.353434 0 45.981241-20.626783 45.981241-45.980218s-20.626783-45.981241-45.981241-45.98124H133.557832c-25.353434 0-45.981241 20.626783-45.981241 45.98124s20.626783 45.980217 45.981241 45.980218h3.381003v51.801806h2.240018c-24.912389 9.585309-43.187615 32.650631-45.814442 60.22157l-1.960655-0.913813 1.666966 25.838482c0.178055 2.75781 5.082762 68.613704 68.041676 160.954809 15.832594 23.219841 17.437138 33.207309 17.490349 36.096102-5.598508 1.813299-22.649859-0.923022-36.209689-5.972015l-12.437264-4.664229-6.401804 11.639085c-0.720408 1.311879-7.099698 13.246699-8.939603 28.27088-2.783393 22.725584 6.124488 41.11542 25.084305 51.779294 37.367049 21.017686 87.321788 3.00852 92.470042 1.055028 12.611226-4.38282 34.542724-20.837584 38.628785-55.562456 1.119497-9.512654 0.662079-19.730367 0.222058-29.611412-0.927115-20.767999-0.947582-35.709293 6.448875-44.722574h464.605574c7.396457 9.012258 7.375991 23.954575 6.448875 44.722574-0.441045 9.881045-0.89744 20.098757 0.222058 29.611412 4.086062 34.726919 26.021653 51.182706 38.631856 55.56348 3.298116 1.25048 24.846898 9.039887 49.722448 9.039886 14.08581 0 29.237905-2.49789 42.745546-10.095938 18.957771-10.663874 27.865651-29.05371 25.084305-51.779294-1.839905-15.023158-8.218172-26.959002-8.939603-28.269857l-6.401803-11.640108-12.437264 4.664229c-13.535271 5.074575-30.582529 7.812943-36.20969 5.974062 0.053212-2.885723 1.654686-12.872169 17.49035-36.098149 36.957727-54.204529 53.903677-99.358939 61.618382-127.804805a167.165254 167.165254 0 0 0 8.017605-51.200102c-0.002047-30.570249-19.195178-56.726979-46.15725-67.096141z m-763.633041-97.781c0-8.425903 6.855128-15.282055 15.282055-15.282055h761.601778c8.425903 0 15.282055 6.855128 15.282055 15.282055s-6.855128 15.281031-15.282055 15.281031H133.557832c-8.425903 0-15.281031-6.855128-15.281032-15.281031z m739.069599 45.980217v47.056736c-0.384763-0.00614-0.76441-0.029676-1.150196-0.029676H167.638021v-47.02706h689.708378z m33.377178 161.005974l-0.21694 0.729617c-7.051603 26.137287-22.741957 67.978231-57.442271 118.872365-14.677281 21.527292-32.375362 52.459792-16.671704 72.462358 8.573259 10.920724 24.095791 14.475689 46.130643 10.567684a144.920624 144.920624 0 0 0 10.838859-2.379187c0.509606 2.003634 0.931209 4.161786 1.16657 6.38543 1.342578 12.695137-4.498454 17.705244-9.735736 20.651343-21.449521 12.06478-55.365982 3.420913-66.595744-0.915859l-0.035815-0.066515-0.573052-0.163729c-2.260483-0.925069-15.667841-7.341199-18.356067-30.191626-0.828878-7.04137-0.447185-15.597233-0.041955-24.654517 1.087774-24.3772 2.443655-54.716182-21.51706-73.517387l-4.172019-3.273556h-487.462141l-4.172019 3.273556c-23.960715 18.801205-22.605857 49.140187-21.517059 73.517387 0.405229 9.057283 0.786922 17.612123-0.041956 24.654517-2.65855 22.591531-15.793708 29.119201-18.274202 30.15888l-0.659009 0.251733c-11.259438 4.349051-45.178969 12.993942-66.62542 0.928139-5.238304-2.946099-11.07729-7.955182-9.736759-20.650319a45.419446 45.419446 0 0 1 1.166569-6.385431c3.323699 0.858554 7.011694 1.700735 10.839883 2.379187 22.036899 3.90903 37.557384 0.354064 46.130643-10.567683 6.436596-8.198729 7.844665-19.003819 4.186346-32.115442-3.101641-11.113105-9.924024-24.309662-20.85805-40.346917-30.202882-44.296879-45.662992-81.563644-53.315276-105.026008-2.975774-9.124821-5.033643-16.924461-6.448876-23.176862l-2.036379-17.712407c-0.623193-5.423523-0.939395-10.738575-0.939395-15.796778 0-22.701025 18.46863-41.169655 41.169654-41.169655h691.288363c22.702048 0 41.169655 18.46863 41.169655 41.169655a136.488581 136.488581 0 0 1-6.642281 42.108027z" p-id="3098" fill="#213C7B"></path></svg>